<?xml version="1.0" encoding="utf-8"?>
<!-- Generator: Adobe Illustrator 25.4.0, SVG Export Plug-In . SVG Version: 6.00 Build 0)  -->
<svg version="1.1" id="Layer_1" xmlns="http://www.w3.org/2000/svg" xmlns:xlink="http://www.w3.org/1999/xlink" x="0px" y="0px"
	 viewBox="0 0 1626 1038" style="enable-background:new 0 0 1626 1038;" xml:space="preserve">
<style type="text/css">
	.st0{fill:#39B792;}
	.st1{fill:url(#SVGID_1_);}
	.st2{fill:url(#SVGID_00000129923346288954260970000017220888229603775668_);}
	.st3{fill:url(#SVGID_00000116211005141360860750000016461551341858655663_);}
	.st4{fill:#CB912D;}
	.st5{fill:#3ABC9A;}
</style>
<g>
	<g>
		<path class="st0" d="M203.3,775.19c-2.64-9.86-5.46-23.51-6.34-39.94c-0.26-4.93-1.2-25.98,4.44-53.26
			c5.55-26.85,14.63-45.95,20.92-58.97c8.99-18.59,18.48-33.27,26-43.75c9.55-12.29,23.31-28.31,41.85-45.02
			c20.75-18.7,38.68-30.34,52.62-39.31c20.56-13.22,26.15-14.81,65.31-36.14c34.64-18.87,52.89-28.81,76.08-43.75
			c24.48-15.77,43.06-27.73,65.31-48.19c27.12-24.94,43.99-48.05,50.72-57.7c21.27-30.48,31.88-56.27,34.24-62.14
			c6.25-15.53,10.18-29.15,12.68-39.31c-10.63,17.23-25.41,39.25-45.02,63.4c-17.52,21.58-32,36.39-35.51,39.94
			c-10.74,10.9-33.6,33.14-66.57,57.06c-15.46,11.22-29.09,19.86-39.31,26c6.08-23,12.61-42.63,18.39-58.33
			c6.63-18,15.05-40.73,29.17-66.57c10.11-18.51,20.09-33.02,22.75-36.86c4.44-6.39,8.15-11.35,9.58-13.23
			c11.18-14.67,30.91-35.41,55.16-52.62c40.25-28.56,81.88-39.5,102.08-43.75c2.58,33.03,0.96,60.55-1.27,80.52
			c-2.39,21.39-4.41,39.53-12.68,62.77c-2.73,7.66-12.33,33.29-33.6,61.5c-15.95,21.15-31.24,34.17-45.65,46.28
			c-10.8,9.08-24.93,20.01-65.31,45.02c-44.64,27.65-83,48.75-98.28,57.06c-14.91,8.11-43.11,23.22-76.72,43.75
			c-7.92,4.84-19.48,12.02-33.6,22.83c-4.72,3.61-18.79,14.57-35.51,31.07c-8.45,8.34-22.95,22.78-38.68,44.38
			c-5.36,7.36-13.87,19.15-22.83,36.14c-7.62,14.46-12.87,27.56-16.48,38.04c-4.01,10.45-8.06,23.45-10.78,38.68
			C203.42,747.91,202.89,763.06,203.3,775.19z"/>
		<linearGradient id="SVGID_1_" gradientUnits="userSpaceOnUse" x1="302.4132" y1="210.0903" x2="79.6649" y2="572.7039">
			<stop  offset="0" style="stop-color:#FFB700"/>
			<stop  offset="0.4848" style="stop-color:#FFFFFF"/>
			<stop  offset="1" style="stop-color:#FFB554"/>
		</linearGradient>
		<path class="st1" d="M184.92,593.22c-0.38-7.84-1.2-19.54-3.17-33.6c-6.46-46.21-17.74-63.91-27.26-104.62
			c-8.73-37.32-13.4-57.27-8.88-84.33c1.97-11.78,9.71-58.03,48.82-84.33c21.75-14.62,44.56-17.26,49.45-17.75
			c12.11-1.21,25.19,0.46,51.36,3.8c22.69,2.9,28.24,4.83,43.11,4.44c20.83-0.55,30.95-4.9,36.92-8.24
			c8-4.48,13.52-9.95,16.97-13.95c-4.78,2.44-12.15,5.57-21.56,6.97c-7.17,1.07-16.5,1.3-34.87-3.17
			c-15.92-3.87-19.32-6.57-36.14-12.05c-15.55-5.06-30.3-9.87-49.45-11.41c-9.97-0.8-25.6-1.93-45.02,3.17
			c-22.51,5.91-37.36,16.83-41.85,20.29c-17.47,13.49-26.24,28.49-31.7,38.04c-16.12,28.22-19.72,55.96-20.29,73.55
			c-0.91,19.12-0.12,45.93,7.61,76.72c6.77,26.97,16.73,48.53,25.36,64.04L184.92,593.22z"/>
		
			<linearGradient id="SVGID_00000086677080548217624490000014975382848160913550_" gradientUnits="userSpaceOnUse" x1="-34.8063" y1="387.2726" x2="484.5081" y2="273.3083">
			<stop  offset="0" style="stop-color:#FFB554"/>
			<stop  offset="0.4848" style="stop-color:#FFFFFF"/>
			<stop  offset="1" style="stop-color:#FFB700"/>
		</linearGradient>
		<path style="fill:url(#SVGID_00000086677080548217624490000014975382848160913550_);" d="M257.83,292.05
			c17.9,6,42.44,11.7,71.65,11.41c13.67-0.13,35.29-0.52,60.87-9.51c15.76-5.54,28.31-12.68,45.02-22.19
			c10.93-6.22,18.55-11.18,39.31-22.83c13.37-7.5,24.42-13.41,39.31-13.31c5.72,0.04,10.44,0.95,13.63,1.76l-16.16,25.5
			l-13.95,27.26c-1.05,0.42-2.11,0.84-3.17,1.27c-2.5,1-4.97,2.01-7.43,3.03c-1.08,0.49-2.68,1.2-4.62,2.04
			c-12.08,5.26-24.6,9.8-38.68,14.58c-26.24,8.92-39.36,13.38-57.29,15.7c-30.42,3.95-53.78-0.6-59.37-1.75
			c-25.54-5.29-42.98-15.1-47.55-17.75C270.09,301.87,262.89,296.34,257.83,292.05z"/>
		
			<linearGradient id="SVGID_00000061469034755091644080000010363319730925834387_" gradientUnits="userSpaceOnUse" x1="631.5118" y1="279.8046" x2="371.2071" y2="812.0695">
			<stop  offset="0" style="stop-color:#FFB700"/>
			<stop  offset="0.4848" style="stop-color:#FFFFFF"/>
			<stop  offset="1" style="stop-color:#FFB554"/>
		</linearGradient>
		<path style="fill:url(#SVGID_00000061469034755091644080000010363319730925834387_);" d="M236.27,765.04
			c1.86,2.19,13.52,15.77,24.73,20.29c4.08,1.65,6.78,1.95,8.24,1.9c4.41-0.13,7.71-2.08,9.51-3.17c3.09-1.87,4.92-3.95,7.29-6.66
			c1.4-1.66,3.34-4.12,5.39-7.29c6.24-9.67,8.66-18.59,10.78-27.26c3.44-14.09,4.05-19.29,6.34-29.8
			c3.78-17.37,7.97-30.08,12.05-42.48c5.54-16.83,8.31-25.25,12.68-32.97c9.81-17.34,20.98-26.47,25.36-29.8
			c6.1-4.63,11.9-8.94,20.92-10.78c2.17-0.44,11.76-2.22,23.12,1.67c1.99,0.68,11.21,4,19.99,13.54
			c9.15,9.94,12.12,20.47,15.85,34.24c10.01,37,15.02,55.51,15.22,56.43c0,0,5.35,24.8,15.85,50.09
			c1.41,3.41,4.79,11.24,12.68,15.22c1.24,0.62,8.49,4.28,15.22,1.27c4.65-2.08,6.87-6.38,8.88-10.78
			c8.76-19.18,10.14-29.17,10.14-29.17c6.97-17.75,9.65-36.69,13.95-55.16c4.83-20.74,9.05-38.88,15.85-60.87
			c9.07-29.33,14.12-45.67,25.36-66.57c8.16-15.18,19.06-31.78,32.34-51.99c5.37-8.18,10.54-16.5,15.85-24.73
			c9.28-14.38,12.79-19.63,16.48-27.9c4.24-9.5,6.42-17.84,7.61-23.46c-4.2,2.71-10.45,6.45-18.39,10.14
			c-13.26,6.17-23.91,8.82-31.7,10.78c-17.2,4.32-35.54,9.04-57.06,14.58c8.01-4.13,19.72-10.34,33.6-18.39
			c31.69-18.36,51.74-29.98,73.55-49.09c17.09-14.98,38.24-33.88,53.89-65.67c9.47-19.23,13.74-36.72,15.85-48.82
			c0.49,12.53-0.26,23.29-1.27,31.7c-2.37,19.69-7.11,34.19-8.88,39.31c-2.43,7.05-5.64,16.2-12.05,27.26
			c-6.28,10.83-13.04,19.02-18.39,24.73c0.2,6.99,0.09,16.59-1.27,27.9c-0.57,4.7-2.96,23.1-12.05,47.55
			c-3.07,8.27-9.28,20.84-21.56,45.65c-9.74,19.67-10.63,20.91-15.85,31.7c-10.48,21.67-17.47,38.62-22.19,50.09
			c-9.83,23.92-18.14,44.11-26,70.38C559.47,717.93,552.66,753,552.66,753c-1.48,7.59-4.58,24.25-15.85,41.85
			c-5.41,8.45-11.26,17.3-22.83,22.19c-1.9,0.8-16.85,6.84-32.94,0c-2.59-1.1-14.05-5.04-22.22-21.56
			c-4.23-8.55-5.22-22.3-12.68-49.45c-10.85-39.47-9.51-32.34-18.39-74.18c-1.84-8.68-3.66-21.9-13.95-31.07
			c-2.33-2.07-8.45-7.38-17.75-8.24c-2.74-0.26-8.48-0.38-14.58,2.54c-5.41,2.58-9,6.56-12.68,12.05
			c-6.88,10.27-9.86,19.62-13.31,31.07c-4.88,16.15-6.29,21.81-10.14,34.87c-2.91,9.84-5.32,17.34-10.14,32.34
			c-8.03,24.97-9.8,29.12-12.68,34.24c-7.93,14.12-15.53,20.1-18.39,22.19c-3.97,2.91-9.46,6.83-17.75,8.24
			c-1.75,0.3-10.7,1.69-20.92-2.54c-8.52-3.52-13.4-9.08-16.48-12.68c-1.22-1.42-6.1-7.28-9.51-16.48
			C237.5,773.12,236.66,768.47,236.27,765.04z"/>
	</g>
	<g>
		<path class="st4" d="M662.59,586.24l20.59,18.03c1.93,1.68,3.32,2.52,4.18,2.52c1.43,0,2.15-1.53,2.15-4.59
			c0-3.47-0.21-5.84-0.62-7.11c-0.41-1.27-1.28-2.22-2.6-2.85c-1.08-0.52-1.83-1.08-2.27-1.67c-0.44-0.59-0.66-1.36-0.66-2.29
			c0-2.31,1.58-3.8,4.75-4.46c1.29-0.28,3.56-0.41,6.78-0.41c4.16,0,7.04,0.25,8.64,0.74c2.54,0.77,3.8,2.23,3.8,4.38
			c0,1.79-1.03,3.14-3.1,4.05c-0.83,0.36-1.39,0.68-1.7,0.95c-0.3,0.28-0.56,0.69-0.79,1.24c-0.74,1.82-1.13,5.27-1.16,10.34v13.48
			c0,2.07,0.01,4.89,0.04,8.48c0.03,4.85-0.26,8.35-0.87,10.5c-0.74,2.67-2.1,4.01-4.05,4.01c-0.85,0-1.59-0.18-2.21-0.54
			s-1.65-1.18-3.08-2.48l-24.52-21.95c-1.71-1.54-3.13-2.32-4.26-2.32c-1.68,0-2.52,2.33-2.52,6.99c0,3.83,0.21,6.45,0.64,7.86
			c0.43,1.41,1.3,2.44,2.62,3.1c1.85,0.91,2.77,2.09,2.77,3.56c0,3.83-4.12,5.75-12.36,5.75c-3.72,0-6.61-0.49-8.66-1.47
			c-2.05-0.98-3.08-2.36-3.08-4.16c0-0.94,0.19-1.64,0.58-2.11c0.39-0.47,1.25-1.1,2.6-1.9c1.3-0.77,2.08-2.14,2.36-4.09
			c0.47-3.56,0.7-8.67,0.7-15.34c0-7.11-0.41-12.29-1.24-15.55c-0.3-1.18-0.69-2.07-1.16-2.65c-0.47-0.58-1.24-1.13-2.32-1.65
			c-1.24-0.61-2.1-1.2-2.58-1.78c-0.48-0.58-0.72-1.28-0.72-2.11c0-2.65,2.27-4.31,6.82-5c1.54-0.22,4.25-0.33,8.1-0.33
			c2.21,0,3.81,0.17,4.82,0.52C660.02,584.25,661.21,585.03,662.59,586.24z"/>
		<path class="st4" d="M727.91,583.35c8.6,0,12.9,1.78,12.9,5.33c0,0.97-0.22,1.75-0.66,2.36c-0.44,0.61-1.28,1.28-2.52,2.03
			c-1.08,0.66-1.76,1.53-2.05,2.6c-0.29,1.08-0.43,3.25-0.43,6.53c0,1.93,0.36,3.11,1.08,3.56c0.41,0.28,1.04,0.44,1.88,0.5
			s2.82,0.08,5.93,0.08c2.84,0,4.6-0.15,5.29-0.45c0.69-0.3,1.03-1.06,1.03-2.27c0-3.64-0.17-6.17-0.5-7.61
			c-0.33-1.43-0.98-2.41-1.94-2.94c-1.21-0.69-2.01-1.27-2.4-1.76c-0.39-0.48-0.58-1.12-0.58-1.92c0-1.13,0.43-2.16,1.28-3.08
			c0.85-0.92,1.97-1.55,3.35-1.88c2.87-0.69,6.46-1.03,10.79-1.03c5.07,0,8.81,0.46,11.22,1.38c2.41,0.92,3.62,2.36,3.62,4.32
			c0,1.65-0.85,2.89-2.56,3.72c-1.08,0.5-1.78,0.97-2.11,1.43c-0.33,0.45-0.59,1.3-0.79,2.54c-0.11,0.69-0.25,3.75-0.41,9.18
			c-0.17,5.43-0.25,9.74-0.25,12.94c0,5.6,0.21,9.15,0.62,10.67c0.22,0.83,0.47,1.38,0.74,1.65c0.28,0.28,1.14,0.83,2.6,1.65
			c1.05,0.58,1.57,1.46,1.57,2.65c0,2.09-1.25,3.62-3.74,4.57c-2.5,0.95-6.54,1.43-12.13,1.43c-4.91,0-8.53-0.48-10.87-1.45
			c-2.12-0.88-3.18-2.25-3.18-4.09c0-1.57,0.81-2.8,2.44-3.68c0.8-0.44,1.34-0.88,1.63-1.32c0.29-0.44,0.57-1.25,0.85-2.44
			c0.5-2.32,0.74-5.15,0.74-8.52c0-1.74-0.25-2.81-0.76-3.23c-0.51-0.41-1.84-0.62-3.99-0.62c-4.93,0-8.08,0.28-9.43,0.83
			c-0.55,0.22-0.9,0.87-1.03,1.94c-0.17,1.32-0.25,2.95-0.25,4.88c0,3.14,0.44,5.4,1.32,6.78c0.3,0.44,1.02,1.01,2.15,1.69
			c1.16,0.66,1.74,1.75,1.74,3.27c0,1.93-1.34,3.4-4.01,4.42c-2.67,1.02-6.49,1.53-11.45,1.53c-4.52,0-8.21-0.47-11.08-1.41
			c-1.24-0.41-2.21-1-2.91-1.76c-0.7-0.76-1.05-1.59-1.05-2.5s0.22-1.61,0.66-2.11c0.44-0.5,1.41-1.13,2.89-1.9
			c0.77-0.39,1.32-0.88,1.63-1.49c0.32-0.61,0.56-1.63,0.72-3.06c0.41-3.23,0.62-7.44,0.62-12.65c0-0.96-0.01-2.11-0.04-3.43
			c-0.11-6.61-0.17-10.39-0.17-11.33c0.03-2.37-0.17-3.93-0.6-4.69c-0.43-0.76-1.55-1.59-3.37-2.5c-1.21-0.58-1.82-1.45-1.82-2.6
			c0-2.78,2.7-4.71,8.1-5.79C721.38,583.67,724.6,583.35,727.91,583.35z"/>
		<path class="st4" d="M831.44,612.13l7.81,16.74c0.74,1.54,1.36,2.56,1.86,3.04c0.5,0.48,1.25,0.81,2.27,0.97
			c1.98,0.3,2.98,1.31,2.98,3.02c0,2.01-1.21,3.46-3.64,4.34c-2.43,0.88-6.39,1.32-11.91,1.32c-6.23,0-10.85-0.26-13.85-0.79
			c-1.38-0.25-2.47-0.75-3.29-1.51c-0.81-0.76-1.22-1.67-1.22-2.75c0-0.83,0.21-1.47,0.64-1.92c0.43-0.46,1.22-0.88,2.38-1.26
			c1.29-0.44,1.94-1.18,1.94-2.23c0-1.85-1.12-2.94-3.35-3.27c-2.4-0.33-5.77-0.5-10.13-0.5c-3.67,0-5.86,0.22-6.57,0.66
			c-0.44,0.28-0.83,0.77-1.16,1.49c-0.33,0.72-0.5,1.41-0.5,2.07c0,0.61,0.12,1,0.35,1.18c0.23,0.18,1,0.48,2.29,0.89
			c1.68,0.5,2.52,1.49,2.52,2.98c0,3.28-3.93,4.92-11.78,4.92c-4.47,0-7.75-0.3-9.84-0.91c-1.93-0.58-2.89-1.85-2.89-3.8
			c0-0.85,0.21-1.52,0.64-1.98c0.43-0.47,1.19-0.9,2.29-1.28c1.79-0.63,3.15-1.52,4.07-2.67c0.92-1.14,2.24-3.59,3.95-7.34
			l5.83-12.78c2.15-4.69,3.59-8.19,4.32-10.52s1.11-4.61,1.14-6.84c0.03-2.37,0.17-4.02,0.43-4.94c0.26-0.92,0.85-1.83,1.76-2.71
			c1.9-1.93,4.33-2.89,7.28-2.89c2.78,0,5.44,1.09,7.98,3.27C819.58,589.1,824.71,597.77,831.44,612.13z M802.66,617.34h8.1
			c1.49,0,2.23-0.33,2.23-0.99c0-0.91-1.03-3.14-3.1-6.7c-0.94-1.63-1.65-2.71-2.15-3.27s-1.02-0.83-1.57-0.83
			c-0.99,0-1.82,0.92-2.48,2.77c-0.11,0.25-0.51,1.23-1.2,2.94c-1.16,2.81-1.74,4.49-1.74,5.04
			C800.76,616.99,801.39,617.34,802.66,617.34z"/>
		<path class="st4" d="M922.48,595.55l-4.42,4.26c-1.63,1.54-2.44,2.95-2.44,4.22c0,0.69,0.19,1.38,0.56,2.07
			c0.37,0.69,1.07,1.63,2.09,2.81l15.46,17.9c1.38,1.6,2.33,2.61,2.85,3.04c0.52,0.43,1.31,0.88,2.36,1.34
			c1.49,0.63,2.54,1.34,3.16,2.11c0.62,0.77,0.93,1.78,0.93,3.02c0,2.92-2.08,4.38-6.24,4.38h-15.67c-1.08,0-1.92-0.23-2.54-0.7
			s-1.61-1.63-2.96-3.47c-2.15-2.95-4.99-6.34-8.52-10.17c-1.54-1.65-2.63-2.74-3.25-3.25c-0.62-0.51-1.19-0.76-1.72-0.76
			c-1.6,0-2.4,1.5-2.4,4.51c0,2.45,0.52,4.15,1.57,5.09c0.19,0.14,0.63,0.44,1.32,0.91c1.49,0.97,2.23,2.16,2.23,3.6
			c0,1.82-1.21,3.12-3.64,3.91c-2.43,0.79-6.51,1.18-12.24,1.18c-5.1,0-8.82-0.3-11.16-0.91c-0.99-0.28-1.8-0.78-2.42-1.51
			c-0.62-0.73-0.93-1.55-0.93-2.46c0-1.46,0.83-2.71,2.48-3.76c0.74-0.5,1.27-1.04,1.59-1.63c0.32-0.59,0.61-1.59,0.89-3
			c0.55-3.11,0.83-7.91,0.83-14.39c0-7.72-0.29-13.19-0.87-16.41c-0.22-1.32-0.52-2.27-0.91-2.85c-0.39-0.58-1.06-1.14-2.03-1.7
			c-1.54-0.88-2.32-2.11-2.32-3.68c0-1.32,0.48-2.38,1.45-3.18c0.96-0.8,2.51-1.41,4.63-1.82c2.81-0.55,6.34-0.83,10.58-0.83
			c4.33,0,7.54,0.41,9.63,1.24c1.87,0.77,2.81,2.15,2.81,4.13c0,0.83-0.14,1.47-0.43,1.92c-0.29,0.45-1.04,1.16-2.25,2.13
			c-0.44,0.39-0.85,1.31-1.22,2.77c-0.37,1.46-0.56,2.89-0.56,4.3c0,2.32,0.52,3.47,1.57,3.47c0.63,0,1.25-0.27,1.84-0.83
			c0.59-0.55,1.78-1.93,3.58-4.13c2.07-2.56,3.1-4.31,3.1-5.25c0-0.5-0.26-1.24-0.79-2.23c-0.36-0.69-0.54-1.32-0.54-1.9
			c0-2.04,1.1-3.48,3.31-4.32c2.21-0.84,5.97-1.26,11.29-1.26c4.24,0,7.39,0.28,9.43,0.83c2.51,0.69,3.76,2.15,3.76,4.38
			c0,0.88-0.26,1.7-0.79,2.46c-0.52,0.76-1.17,1.25-1.94,1.47c-0.58,0.19-1.92,0.3-4.01,0.33c-1.46,0.03-2.56,0.2-3.29,0.52
			C924.58,593.74,923.64,594.45,922.48,595.55z"/>
		<path class="st4" d="M962.5,583.35c8.6,0,12.9,1.78,12.9,5.33c0,0.97-0.22,1.75-0.66,2.36c-0.44,0.61-1.28,1.28-2.52,2.03
			c-1.08,0.66-1.76,1.53-2.05,2.6c-0.29,1.08-0.43,3.25-0.43,6.53c0,1.93,0.36,3.11,1.08,3.56c0.41,0.28,1.04,0.44,1.88,0.5
			s2.82,0.08,5.93,0.08c2.84,0,4.6-0.15,5.29-0.45c0.69-0.3,1.03-1.06,1.03-2.27c0-3.64-0.17-6.17-0.5-7.61
			c-0.33-1.43-0.98-2.41-1.94-2.94c-1.21-0.69-2.01-1.27-2.4-1.76c-0.39-0.48-0.58-1.12-0.58-1.92c0-1.13,0.43-2.16,1.28-3.08
			c0.85-0.92,1.97-1.55,3.35-1.88c2.87-0.69,6.46-1.03,10.79-1.03c5.07,0,8.81,0.46,11.22,1.38c2.41,0.92,3.62,2.36,3.62,4.32
			c0,1.65-0.85,2.89-2.56,3.72c-1.08,0.5-1.78,0.97-2.11,1.43c-0.33,0.45-0.59,1.3-0.79,2.54c-0.11,0.69-0.25,3.75-0.41,9.18
			c-0.17,5.43-0.25,9.74-0.25,12.94c0,5.6,0.21,9.15,0.62,10.67c0.22,0.83,0.47,1.38,0.74,1.65c0.28,0.28,1.14,0.83,2.6,1.65
			c1.05,0.58,1.57,1.46,1.57,2.65c0,2.09-1.25,3.62-3.74,4.57c-2.5,0.95-6.54,1.43-12.13,1.43c-4.91,0-8.53-0.48-10.87-1.45
			c-2.12-0.88-3.18-2.25-3.18-4.09c0-1.57,0.81-2.8,2.44-3.68c0.8-0.44,1.34-0.88,1.63-1.32c0.29-0.44,0.57-1.25,0.85-2.44
			c0.5-2.32,0.74-5.15,0.74-8.52c0-1.74-0.25-2.81-0.76-3.23c-0.51-0.41-1.84-0.62-3.99-0.62c-4.93,0-8.08,0.28-9.43,0.83
			c-0.55,0.22-0.9,0.87-1.03,1.94c-0.17,1.32-0.25,2.95-0.25,4.88c0,3.14,0.44,5.4,1.32,6.78c0.3,0.44,1.02,1.01,2.15,1.69
			c1.16,0.66,1.74,1.75,1.74,3.27c0,1.93-1.34,3.4-4.01,4.42c-2.67,1.02-6.49,1.53-11.45,1.53c-4.52,0-8.21-0.47-11.08-1.41
			c-1.24-0.41-2.21-1-2.91-1.76c-0.7-0.76-1.05-1.59-1.05-2.5s0.22-1.61,0.66-2.11c0.44-0.5,1.41-1.13,2.89-1.9
			c0.77-0.39,1.32-0.88,1.63-1.49c0.32-0.61,0.56-1.63,0.72-3.06c0.41-3.23,0.62-7.44,0.62-12.65c0-0.96-0.01-2.11-0.04-3.43
			c-0.11-6.61-0.17-10.39-0.17-11.33c0.03-2.37-0.17-3.93-0.6-4.69c-0.43-0.76-1.55-1.59-3.37-2.5c-1.21-0.58-1.82-1.45-1.82-2.6
			c0-2.78,2.7-4.71,8.1-5.79C955.97,583.67,959.19,583.35,962.5,583.35z"/>
		<path class="st4" d="M1044.36,583.1c7.08,0,13.27,2.03,18.56,6.08c3.58,2.78,6.49,6.4,8.72,10.83c2.18,4.41,3.27,8.82,3.27,13.23
			c0,6.51-2.15,12.32-6.45,17.45c-3.64,4.36-8.39,7.48-14.26,9.39c-3.61,1.16-7.23,1.74-10.87,1.74c-4.77,0-9.33-0.99-13.69-2.98
			c-5.26-2.4-9.38-6.02-12.36-10.87c-2.89-4.69-4.34-9.85-4.34-15.5c0-6.56,1.86-12.35,5.58-17.36c3.31-4.47,7.76-7.75,13.35-9.84
			C1035.62,583.82,1039.79,583.1,1044.36,583.1z M1040.43,594.97c-2.32,0-4.15,1.03-5.5,3.1c-1.05,1.54-1.57,3.38-1.57,5.5
			c0,3.11,0.63,6.72,1.9,10.81s2.87,7.73,4.8,10.89c0.85,1.35,1.91,2.43,3.16,3.22c1.25,0.8,2.53,1.2,3.82,1.2
			c2.09,0,3.78-0.79,5.06-2.36c1.28-1.57,1.92-3.64,1.92-6.2c0-3.33-0.54-6.93-1.61-10.79c-1.08-3.86-2.47-7.15-4.18-9.88
			c-1.05-1.68-2.26-3-3.64-3.97S1041.84,595.02,1040.43,594.97z"/>
		<path class="st4" d="M1131.93,612.13l7.81,16.74c0.74,1.54,1.36,2.56,1.86,3.04c0.5,0.48,1.25,0.81,2.27,0.97
			c1.98,0.3,2.98,1.31,2.98,3.02c0,2.01-1.21,3.46-3.64,4.34c-2.43,0.88-6.39,1.32-11.91,1.32c-6.23,0-10.85-0.26-13.85-0.79
			c-1.38-0.25-2.47-0.75-3.29-1.51c-0.81-0.76-1.22-1.67-1.22-2.75c0-0.83,0.21-1.47,0.64-1.92c0.43-0.46,1.22-0.88,2.38-1.26
			c1.29-0.44,1.94-1.18,1.94-2.23c0-1.85-1.12-2.94-3.35-3.27c-2.4-0.33-5.77-0.5-10.13-0.5c-3.67,0-5.86,0.22-6.57,0.66
			c-0.44,0.28-0.83,0.77-1.16,1.49c-0.33,0.72-0.5,1.41-0.5,2.07c0,0.61,0.12,1,0.35,1.18c0.23,0.18,1,0.48,2.29,0.89
			c1.68,0.5,2.52,1.49,2.52,2.98c0,3.28-3.93,4.92-11.78,4.92c-4.47,0-7.75-0.3-9.84-0.91c-1.93-0.58-2.89-1.85-2.89-3.8
			c0-0.85,0.21-1.52,0.64-1.98c0.43-0.47,1.19-0.9,2.29-1.28c1.79-0.63,3.15-1.52,4.07-2.67c0.92-1.14,2.24-3.59,3.95-7.34
			l5.83-12.78c2.15-4.69,3.59-8.19,4.32-10.52s1.11-4.61,1.14-6.84c0.03-2.37,0.17-4.02,0.43-4.94c0.26-0.92,0.85-1.83,1.76-2.71
			c1.9-1.93,4.33-2.89,7.28-2.89c2.78,0,5.44,1.09,7.98,3.27C1120.08,589.1,1125.2,597.77,1131.93,612.13z M1103.15,617.34h8.1
			c1.49,0,2.23-0.33,2.23-0.99c0-0.91-1.03-3.14-3.1-6.7c-0.94-1.63-1.65-2.71-2.15-3.27s-1.02-0.83-1.57-0.83
			c-0.99,0-1.82,0.92-2.48,2.77c-0.11,0.25-0.51,1.23-1.2,2.94c-1.16,2.81-1.74,4.49-1.74,5.04
			C1101.25,616.99,1101.89,617.34,1103.15,617.34z"/>
	</g>
	<g>
		<path class="st4" d="M846.7,706.85c14.83,0,22.24,3.07,22.24,9.2c0,1.66-0.38,3.02-1.14,4.06c-0.76,1.05-2.21,2.21-4.35,3.49
			c-1.85,1.14-3.03,2.64-3.53,4.49c-0.5,1.85-0.75,5.61-0.75,11.26c0,3.33,0.62,5.37,1.85,6.13c0.71,0.48,1.79,0.76,3.24,0.86
			c1.45,0.1,4.86,0.14,10.23,0.14c4.89,0,7.94-0.26,9.12-0.78c1.19-0.52,1.78-1.83,1.78-3.92c0-6.27-0.29-10.65-0.86-13.12
			c-0.57-2.47-1.69-4.16-3.35-5.06c-2.09-1.19-3.47-2.2-4.13-3.03c-0.67-0.83-1-1.94-1-3.31c0-1.95,0.74-3.72,2.21-5.31
			c1.47-1.59,3.4-2.67,5.77-3.24c4.94-1.19,11.14-1.78,18.61-1.78c8.74,0,15.2,0.8,19.35,2.39c4.16,1.59,6.24,4.08,6.24,7.45
			c0,2.85-1.47,4.99-4.42,6.42c-1.85,0.86-3.07,1.68-3.64,2.46s-1.02,2.25-1.35,4.38c-0.19,1.19-0.43,6.46-0.71,15.83
			c-0.29,9.36-0.43,16.8-0.43,22.31c0,9.65,0.36,15.78,1.07,18.39c0.38,1.43,0.81,2.38,1.28,2.85c0.47,0.48,1.97,1.43,4.49,2.85
			c1.81,1,2.71,2.52,2.71,4.56c0,3.61-2.15,6.24-6.45,7.88c-4.3,1.64-11.28,2.46-20.92,2.46c-8.46,0-14.71-0.83-18.75-2.5
			c-3.66-1.52-5.49-3.87-5.49-7.06c0-2.71,1.4-4.82,4.21-6.34c1.38-0.76,2.32-1.52,2.82-2.28c0.5-0.76,0.99-2.16,1.46-4.21
			c0.86-3.99,1.28-8.89,1.28-14.69c0-2.99-0.44-4.85-1.32-5.56c-0.88-0.71-3.17-1.07-6.88-1.07c-8.51,0-13.93,0.48-16.25,1.43
			c-0.95,0.38-1.54,1.5-1.78,3.35c-0.29,2.28-0.43,5.09-0.43,8.41c0,5.42,0.76,9.32,2.28,11.69c0.52,0.76,1.76,1.74,3.71,2.92
			c2,1.14,2.99,3.02,2.99,5.63c0,3.33-2.31,5.87-6.92,7.63c-4.61,1.76-11.19,2.64-19.75,2.64c-7.79,0-14.16-0.81-19.11-2.42
			c-2.14-0.71-3.81-1.72-5.03-3.03c-1.21-1.31-1.82-2.74-1.82-4.31s0.38-2.78,1.14-3.64c0.76-0.86,2.42-1.95,4.99-3.28
			c1.33-0.67,2.27-1.52,2.82-2.57c0.55-1.04,0.96-2.8,1.25-5.28c0.71-5.56,1.07-12.83,1.07-21.81c0-1.66-0.02-3.64-0.07-5.92
			c-0.19-11.41-0.29-17.92-0.29-19.53c0.05-4.09-0.3-6.78-1.03-8.09c-0.74-1.31-2.67-2.74-5.81-4.31c-2.09-1-3.14-2.5-3.14-4.49
			c0-4.8,4.66-8.13,13.97-9.98C835.44,707.4,841,706.85,846.7,706.85z"/>
		<path class="st4" d="M1025.21,756.47l13.47,28.87c1.28,2.66,2.35,4.41,3.21,5.24c0.86,0.83,2.16,1.39,3.92,1.68
			c3.42,0.52,5.13,2.26,5.13,5.2c0,3.47-2.09,5.96-6.27,7.49c-4.18,1.52-11.03,2.28-20.53,2.28c-10.74,0-18.7-0.45-23.88-1.35
			c-2.38-0.43-4.27-1.29-5.67-2.6c-1.4-1.31-2.1-2.89-2.1-4.74c0-1.43,0.37-2.53,1.1-3.31c0.74-0.78,2.1-1.51,4.1-2.17
			c2.23-0.76,3.35-2.04,3.35-3.85c0-3.18-1.92-5.06-5.77-5.63c-4.13-0.57-9.96-0.86-17.47-0.86c-6.32,0-10.1,0.38-11.33,1.14
			c-0.76,0.48-1.43,1.33-2,2.57c-0.57,1.24-0.86,2.42-0.86,3.56c0,1.05,0.2,1.72,0.61,2.03c0.4,0.31,1.72,0.82,3.96,1.53
			c2.9,0.86,4.35,2.57,4.35,5.13c0,5.66-6.77,8.48-20.32,8.48c-7.7,0-13.36-0.52-16.97-1.57c-3.33-1-4.99-3.18-4.99-6.56
			c0-1.47,0.37-2.61,1.11-3.42c0.74-0.81,2.05-1.54,3.96-2.21c3.09-1.09,5.43-2.63,7.02-4.6c1.59-1.97,3.86-6.19,6.81-12.65
			l10.05-22.03c3.71-8.08,6.19-14.13,7.45-18.14c1.26-4.02,1.91-7.95,1.96-11.8c0.05-4.09,0.3-6.93,0.75-8.52
			c0.45-1.59,1.46-3.15,3.03-4.67c3.28-3.33,7.46-4.99,12.55-4.99c4.8,0,9.39,1.88,13.76,5.63
			C1004.77,716.76,1013.61,731.71,1025.21,756.47z M980.22,676.55c3.37,0,6.14,0.39,8.31,1.18c2.16,0.78,3.24,1.79,3.24,3.03
			c0,0.38-0.24,1.02-0.71,1.92c-0.24,0.43-0.36,0.83-0.36,1.21c0,0.71,0.24,1.31,0.71,1.78c0.47,0.48,1.78,1.5,3.92,3.07l1.43,1.14
			c2.42,1.85,3.64,3.66,3.64,5.42c0,3.52-2.45,5.28-7.34,5.28c-8.65,0-16.59-2.76-23.81-8.27c-4.04-3.14-6.06-5.8-6.06-7.98
			c0-2.23,1.6-4.07,4.81-5.52C971.21,677.35,975.28,676.6,980.22,676.55z M975.59,765.45h13.97c2.57,0,3.85-0.57,3.85-1.71
			c0-1.57-1.78-5.42-5.35-11.55c-1.62-2.8-2.85-4.68-3.71-5.63c-0.86-0.95-1.76-1.43-2.71-1.43c-1.71,0-3.14,1.59-4.28,4.78
			c-0.19,0.43-0.88,2.12-2.07,5.06c-2,4.85-2.99,7.75-2.99,8.7C972.31,764.86,973.4,765.45,975.59,765.45z"/>
		<path class="st4" d="M1138.98,711.84l35.5,31.08c3.33,2.9,5.73,4.35,7.2,4.35c2.47,0,3.71-2.64,3.71-7.91
			c0-5.99-0.36-10.08-1.07-12.26c-0.71-2.19-2.21-3.83-4.49-4.92c-1.85-0.9-3.16-1.86-3.92-2.89c-0.76-1.02-1.14-2.34-1.14-3.96
			c0-3.99,2.73-6.56,8.2-7.7c2.23-0.47,6.13-0.71,11.69-0.71c7.18,0,12.14,0.43,14.9,1.28c4.37,1.33,6.56,3.85,6.56,7.56
			c0,3.09-1.78,5.42-5.35,6.99c-1.43,0.62-2.4,1.17-2.92,1.64c-0.52,0.48-0.97,1.19-1.35,2.14c-1.28,3.14-1.95,9.08-2,17.82v23.24
			c0,3.56,0.02,8.44,0.07,14.61c0.05,8.37-0.45,14.4-1.5,18.11c-1.28,4.61-3.61,6.92-6.99,6.92c-1.47,0-2.75-0.31-3.81-0.93
			c-1.07-0.62-2.84-2.04-5.31-4.28l-42.27-37.85c-2.95-2.66-5.39-3.99-7.34-3.99c-2.9,0-4.35,4.02-4.35,12.05
			c0,6.61,0.37,11.12,1.11,13.54c0.74,2.42,2.25,4.21,4.53,5.35c3.18,1.57,4.78,3.61,4.78,6.13c0,6.61-7.11,9.91-21.32,9.91
			c-6.42,0-11.4-0.84-14.93-2.53c-3.54-1.69-5.31-4.07-5.31-7.16c0-1.62,0.33-2.83,1-3.64c0.67-0.81,2.16-1.9,4.49-3.28
			c2.23-1.33,3.59-3.68,4.06-7.06c0.81-6.13,1.21-14.95,1.21-26.45c0-12.26-0.71-21.2-2.14-26.8c-0.52-2.04-1.19-3.56-2-4.56
			c-0.81-1-2.14-1.95-3.99-2.85c-2.14-1.04-3.62-2.07-4.46-3.07c-0.83-1-1.25-2.21-1.25-3.64c0-4.56,3.92-7.44,11.76-8.63
			c2.66-0.38,7.32-0.57,13.97-0.57c3.8,0,6.57,0.3,8.31,0.89C1134.55,708.41,1136.61,709.75,1138.98,711.84z"/>
		<path class="st4" d="M1275.72,706.42c12.21,0,22.88,3.49,32.01,10.48c6.18,4.8,11.19,11.03,15.04,18.68
			c3.75,7.6,5.63,15.21,5.63,22.81c0,11.22-3.71,21.24-11.12,30.08c-6.27,7.51-14.47,12.9-24.59,16.18
			c-6.23,2-12.48,2.99-18.75,2.99c-8.22,0-16.09-1.71-23.6-5.13c-9.08-4.13-16.18-10.38-21.32-18.75
			c-4.99-8.08-7.49-16.99-7.49-26.73c0-11.31,3.21-21.29,9.62-29.94c5.7-7.7,13.38-13.35,23.03-16.97
			C1260.65,707.66,1267.83,706.42,1275.72,706.42z M1274.58,674.56c1.57,0,4.11,0.99,7.63,2.96c3.52,1.97,7.13,4.41,10.84,7.31
			c3.33,2.61,5.62,4.68,6.88,6.2c1.26,1.52,1.89,2.97,1.89,4.35c0,1.43-0.52,2.69-1.57,3.78c-1.05,1.09-2.26,1.64-3.64,1.64
			c-1.85,0-5.77-1.43-11.76-4.28c-4.71-2.23-8.17-3.35-10.41-3.35c-1.33,0-2.47,0.18-3.42,0.53c-0.95,0.36-3.14,1.44-6.56,3.24
			c-5.04,2.66-8.65,3.99-10.84,3.99c-1.62,0-2.94-0.53-3.96-1.6c-1.02-1.07-1.53-2.46-1.53-4.17c0-1.57,0.78-3.27,2.35-5.1
			c1.57-1.83,4.3-4.22,8.2-7.16C1266.05,677.34,1271.34,674.56,1274.58,674.56z M1268.94,726.88c-3.99,0-7.15,1.78-9.48,5.35
			c-1.81,2.66-2.71,5.82-2.71,9.48c0,5.37,1.09,11.58,3.28,18.64c2.19,7.06,4.94,13.32,8.27,18.78c1.47,2.33,3.29,4.18,5.45,5.56
			c2.16,1.38,4.36,2.07,6.59,2.07c3.61,0,6.52-1.35,8.73-4.06c2.21-2.71,3.31-6.27,3.31-10.69c0-5.75-0.93-11.95-2.78-18.61
			c-1.85-6.65-4.25-12.33-7.2-17.04c-1.81-2.9-3.9-5.18-6.27-6.84C1273.77,727.86,1271.37,726.98,1268.94,726.88z M1282.85,813.85
			c3.56,0,6.37,0.84,8.41,2.53c2.04,1.69,3.07,4.03,3.07,7.02c0,3.99-1.71,7.08-5.13,9.27c-4.9,3.14-10.24,4.71-16.04,4.71
			c-3.23,0-5.85-0.87-7.84-2.6c-2-1.74-2.99-4.03-2.99-6.88c0-3.61,1.5-6.56,4.49-8.84c2.04-1.57,4.57-2.84,7.59-3.81
			C1277.42,814.27,1280.23,813.81,1282.85,813.85z"/>
		<path class="st4" d="M1365.11,706.92c5.42,0,10.53,0.48,15.33,1.43c6.46,1.28,9.7,4.02,9.7,8.2c0,1.38-0.32,2.41-0.96,3.1
			c-0.64,0.69-2.27,1.7-4.88,3.03c-2.19,1.09-3.62,3.49-4.31,7.2c-0.69,3.71-1.03,10.93-1.03,21.67c0,18.16,0.45,29.4,1.35,33.72
			c0.33,1.38,0.84,2.44,1.53,3.17c0.69,0.74,1.89,1.53,3.6,2.39c3.14,1.43,4.71,3.49,4.71,6.2c0,3.8-2.9,6.42-8.7,7.84
			c-6.27,1.52-13.95,2.28-23.03,2.28c-15.49,0-23.24-2.95-23.24-8.84c0-2.14,1.52-4.13,4.56-5.99c2.33-1.43,3.71-3.37,4.13-5.85
			c0.9-5.42,1.35-16.92,1.35-34.5c0-12.17-0.62-19.96-1.85-23.38c-0.67-1.95-2.26-3.71-4.78-5.28c-1.95-1.28-3.26-2.35-3.92-3.21
			c-0.67-0.86-1-1.95-1-3.28c0-2.04,0.99-3.67,2.96-4.88c1.97-1.21,5.45-2.29,10.44-3.24
			C1353.02,707.52,1359.03,706.92,1365.11,706.92z"/>
	</g>
	<g>
		<path class="st5" d="M413.42,896.47c-0.4,1.86-1.1,3.49-2.09,4.87c-0.99,1.38-2.29,2.46-3.91,3.23c-1.62,0.77-3.62,1.16-6,1.16
			c-2.18,0-4.14-0.39-5.88-1.16c-1.74-0.78-3.21-2.08-4.4-3.93c-0.61-0.88-1.06-1.82-1.36-2.83c-0.3-1.01-0.52-2.06-0.66-3.13
			s-0.2-2.15-0.2-3.22c0-1.07,0-2.13,0-3.18v-12.9c0-1.15,0.01-2.27,0.03-3.37c0.02-1.1,0.11-2.19,0.27-3.27
			c0.16-1.08,0.42-2.13,0.79-3.15c0.37-1.02,0.9-2.02,1.6-2.98c1.15-1.5,2.59-2.59,4.35-3.25s3.55-0.99,5.39-0.99
			c2.16,0,4.03,0.37,5.61,1.09c1.58,0.73,2.88,1.73,3.89,3c1.01,1.27,1.76,2.77,2.24,4.51c0.48,1.74,0.72,3.62,0.72,5.64v1.38h-7.11
			c0-0.97-0.04-1.97-0.13-3c-0.09-1.03-0.32-2-0.69-2.9c-0.37-0.9-0.91-1.63-1.62-2.21c-0.71-0.57-1.68-0.86-2.91-0.86
			c-1.3,0-2.31,0.29-3.02,0.86c-0.71,0.57-1.24,1.3-1.58,2.17s-0.56,1.83-0.62,2.86c-0.07,1.03-0.1,2.03-0.1,3v15.33
			c0,0.97,0.02,2.02,0.07,3.17c0.04,1.15,0.24,2.2,0.59,3.17c0.35,0.97,0.89,1.79,1.62,2.46s1.77,1.01,3.12,1.01
			c1.33,0,2.37-0.35,3.13-1.04c0.76-0.7,1.31-1.55,1.65-2.56c0.34-1.01,0.54-2.11,0.62-3.3c0.08-1.19,0.12-2.27,0.12-3.23h7.08v1.52
			C414.03,892.59,413.83,894.6,413.42,896.47z"/>
		<path class="st5" d="M439.71,905.06v-25.1c0-0.47-0.01-0.94-0.03-1.4c-0.02-0.46-0.12-0.89-0.29-1.28
			c-0.17-0.39-0.42-0.71-0.76-0.96c-0.34-0.25-0.81-0.37-1.42-0.37c-1.06,0-2.03,0.38-2.93,1.13c-0.9,0.75-1.64,1.52-2.22,2.31
			v25.67h-6.5v-46.02h6.5v16.14c1.15-1.33,2.38-2.46,3.71-3.4c1.32-0.94,2.91-1.42,4.75-1.42c1.17,0,2.12,0.23,2.85,0.69
			c0.73,0.46,1.3,1.06,1.72,1.79c0.42,0.73,0.69,1.58,0.83,2.54c0.13,0.97,0.2,1.93,0.2,2.9v26.78H439.71z"/>
		<path class="st5" d="M473.01,905.06c-0.25-0.65-0.4-1.31-0.47-1.97s-0.1-1.34-0.1-2.04c-1.1,1.19-2.24,2.24-3.4,3.13
			s-2.63,1.35-4.38,1.35c-1.3,0-2.39-0.26-3.25-0.79c-0.87-0.53-1.58-1.23-2.14-2.11s-0.96-1.85-1.18-2.93s-0.34-2.17-0.34-3.27
			c0-1.53,0.22-2.9,0.66-4.11c0.44-1.21,1.21-2.35,2.31-3.4c1.57-1.48,3.44-2.7,5.59-3.64s4.2-1.83,6.13-2.66v-1.79
			c0-0.58-0.03-1.18-0.1-1.79s-0.21-1.14-0.44-1.6c-0.23-0.46-0.57-0.83-1.03-1.09s-1.06-0.4-1.8-0.4c-1.48,0-2.48,0.49-2.98,1.48
			c-0.5,0.99-0.78,2.12-0.83,3.4h-6.84c0.29-3.44,1.43-6.04,3.4-7.82c1.98-1.77,4.68-2.66,8.12-2.66c1.35,0,2.63,0.17,3.84,0.52
			s2.28,1.05,3.2,2.11c0.97,1.06,1.52,2.24,1.67,3.55c0.15,1.31,0.22,2.63,0.22,3.96v15.26c0,1.55,0.02,3.11,0.07,4.67
			c0.04,1.56,0.27,3.11,0.67,4.63H473.01z M476.98,862.44c-1.64,3.44-4.25,5.22-7.83,5.36c-3.58,0.13-6.26-1.65-8.04-5.36h5.79
			c1.48,1.75,2.93,1.75,4.35,0H476.98z M472.43,887.4c-0.83,0.4-1.71,0.88-2.63,1.43c-0.92,0.55-1.77,1.19-2.54,1.9
			c-0.78,0.72-1.43,1.52-1.95,2.39c-0.53,0.88-0.79,1.84-0.79,2.9c0,0.97,0.27,1.85,0.83,2.64c0.55,0.8,1.35,1.2,2.41,1.2
			s1.98-0.31,2.76-0.93c0.79-0.62,1.43-1.34,1.92-2.17V887.4z"/>
		<path class="st5" d="M519.88,905.06v-25.1c0-0.47-0.01-0.94-0.03-1.4c-0.02-0.46-0.12-0.89-0.29-1.28
			c-0.17-0.39-0.42-0.71-0.76-0.96c-0.34-0.25-0.81-0.37-1.42-0.37c-1.06,0-2.04,0.38-2.96,1.13s-1.68,1.52-2.29,2.31v25.67h-6.4
			v-25.1c0-0.47-0.01-0.94-0.03-1.4c-0.02-0.46-0.12-0.89-0.29-1.28c-0.17-0.39-0.42-0.71-0.76-0.96c-0.34-0.25-0.81-0.37-1.42-0.37
			c-1.06,0-2.03,0.38-2.93,1.13c-0.9,0.75-1.64,1.52-2.22,2.31v25.67h-6.5v-34.3h6.5v4.41c1.15-1.33,2.38-2.46,3.71-3.4
			c1.32-0.94,2.91-1.42,4.75-1.42c1.62,0,2.85,0.44,3.71,1.31s1.42,2.04,1.68,3.5c1.19-1.28,2.48-2.4,3.86-3.37
			c1.38-0.97,2.99-1.45,4.83-1.45c1.19,0,2.16,0.23,2.9,0.69c0.74,0.46,1.32,1.06,1.74,1.79c0.42,0.73,0.69,1.57,0.83,2.51
			s0.2,1.92,0.2,2.93v26.78H519.88z"/>
		<path class="st5" d="M582.29,895.59c0,3.19-0.99,5.68-2.98,7.46c-1.99,1.79-4.52,2.68-7.6,2.68c-1.62,0-3.04-0.22-4.28-0.67
			s-2.32-1.09-3.27-1.92c-0.94-0.83-1.76-1.84-2.46-3.02c-0.7-1.18-1.27-2.5-1.72-3.96l6-2.16c0.22,0.7,0.49,1.4,0.79,2.12
			c0.3,0.72,0.67,1.35,1.11,1.9c0.44,0.55,0.97,0.99,1.58,1.33c0.62,0.34,1.36,0.51,2.24,0.51c1.01,0,1.88-0.31,2.59-0.93
			c0.72-0.62,1.08-1.45,1.08-2.51c0-1.01-0.37-1.89-1.11-2.63s-1.66-1.43-2.76-2.07c-1.1-0.64-2.29-1.29-3.55-1.95
			c-1.27-0.66-2.45-1.44-3.55-2.34c-1.1-0.9-2.02-1.97-2.76-3.22c-0.74-1.25-1.11-2.77-1.11-4.57c0-1.42,0.26-2.71,0.79-3.89
			c0.53-1.18,1.24-2.19,2.14-3.03c0.9-0.84,1.96-1.49,3.18-1.95c1.22-0.46,2.52-0.69,3.89-0.69c2.9,0,5.22,0.72,6.97,2.17
			c1.75,1.45,3.13,3.48,4.14,6.08l-5.86,2.56c-0.22-0.58-0.49-1.18-0.79-1.79c-0.3-0.61-0.66-1.15-1.08-1.63
			c-0.42-0.48-0.91-0.86-1.48-1.13c-0.57-0.27-1.23-0.4-1.97-0.4c-0.92,0-1.71,0.26-2.38,0.79s-0.99,1.27-0.99,2.24
			c0,0.7,0.21,1.31,0.62,1.84c0.42,0.53,0.92,1.02,1.52,1.48c0.59,0.46,1.22,0.86,1.89,1.2s1.25,0.65,1.77,0.94
			c1.19,0.63,2.42,1.33,3.69,2.09c1.27,0.76,2.36,1.63,3.29,2.59c0.88,0.92,1.5,1.93,1.87,3.03
			C582.11,893.25,582.29,894.4,582.29,895.59z"/>
		<path class="st5" d="M613.46,893.27c0,1.8-0.13,3.53-0.39,5.21c-0.26,1.67-1.05,3.18-2.38,4.53c-1.06,1.06-2.26,1.77-3.62,2.16
			s-2.76,0.57-4.19,0.57c-1.46,0-2.86-0.2-4.19-0.61c-1.34-0.4-2.53-1.11-3.59-2.12c-1.35-1.26-2.13-2.76-2.36-4.5
			c-0.23-1.74-0.34-3.49-0.34-5.24v-10.65c0-0.88,0.01-1.75,0.03-2.61c0.02-0.86,0.12-1.71,0.3-2.54c0.18-0.83,0.45-1.63,0.83-2.39
			c0.37-0.76,0.88-1.48,1.53-2.16c1.06-1.06,2.26-1.79,3.62-2.21c1.36-0.42,2.75-0.62,4.16-0.62c1.48,0,2.89,0.21,4.23,0.62
			c1.34,0.42,2.53,1.15,3.59,2.21c0.67,0.63,1.2,1.34,1.57,2.12c0.37,0.79,0.64,1.6,0.81,2.43c0.17,0.83,0.28,1.68,0.32,2.54
			c0.04,0.87,0.07,1.74,0.07,2.61V893.27z M607.03,882.21c0-0.74-0.05-1.49-0.13-2.24c-0.09-0.75-0.28-1.43-0.56-2.02
			s-0.7-1.08-1.25-1.45c-0.55-0.37-1.29-0.56-2.21-0.56s-1.65,0.2-2.17,0.59c-0.53,0.39-0.93,0.89-1.2,1.48s-0.46,1.26-0.56,1.99
			c-0.1,0.73-0.15,1.47-0.15,2.21v11.39c0,0.74,0.05,1.48,0.15,2.21c0.1,0.73,0.29,1.4,0.56,2s0.67,1.1,1.2,1.48
			c0.53,0.38,1.25,0.57,2.17,0.57s1.66-0.18,2.21-0.54c0.55-0.36,0.96-0.84,1.25-1.45s0.47-1.29,0.56-2.04
			c0.09-0.75,0.13-1.5,0.13-2.24V882.21z M604.9,865.17h-4.85l3.2-6.13h6.67L604.9,865.17z"/>
		<path class="st5" d="M645.97,898.61c-0.26,1.45-0.92,2.77-1.97,3.96c-1.06,1.21-2.31,2.04-3.76,2.49
			c-1.45,0.45-2.94,0.67-4.46,0.67c-1.64,0-3.22-0.26-4.73-0.79c-1.52-0.53-2.81-1.45-3.89-2.78c-1.01-1.28-1.62-2.75-1.82-4.41
			c-0.2-1.66-0.3-3.27-0.3-4.82v-9.94c0-1.66,0.1-3.28,0.3-4.87c0.2-1.58,0.81-3.07,1.82-4.46c1.03-1.33,2.34-2.25,3.92-2.78
			c1.58-0.53,3.18-0.79,4.8-0.79c1.5,0,2.97,0.23,4.4,0.69c1.43,0.46,2.67,1.26,3.72,2.41c1.19,1.28,1.88,2.76,2.07,4.45
			c0.19,1.68,0.29,3.35,0.29,4.99h-6.43c0-0.76-0.02-1.54-0.07-2.32c-0.04-0.79-0.2-1.5-0.47-2.14c-0.27-0.64-0.68-1.17-1.23-1.58
			c-0.55-0.42-1.34-0.62-2.38-0.62c-1.1,0-1.95,0.25-2.54,0.76c-0.59,0.51-1.03,1.15-1.3,1.92c-0.27,0.77-0.42,1.62-0.46,2.54
			c-0.03,0.92-0.05,1.8-0.05,2.63v8.29c0,0.83,0.02,1.7,0.05,2.59c0.03,0.9,0.19,1.74,0.46,2.51c0.27,0.78,0.7,1.42,1.3,1.92
			c0.59,0.5,1.44,0.76,2.54,0.76c1.03,0,1.82-0.22,2.38-0.66c0.55-0.44,0.96-0.99,1.23-1.65s0.43-1.41,0.47-2.24
			c0.04-0.83,0.07-1.63,0.07-2.39h6.43v1.21C646.35,895.67,646.22,897.16,645.97,898.61z"/>
		<path class="st5" d="M693.57,905.06h-6.77l-8.42-34.3h6.84l4.88,21.8l4.35-21.8h6.77L693.57,905.06z"/>
		<path class="st5" d="M731.48,875.27v29.78h-6.4v-4.41c-1.1,1.33-2.34,2.47-3.72,3.44c-1.38,0.97-2.97,1.45-4.77,1.45
			c-1.19,0-2.16-0.23-2.9-0.69c-0.74-0.46-1.32-1.06-1.74-1.79c-0.42-0.73-0.69-1.58-0.83-2.54c-0.13-0.97-0.2-1.93-0.2-2.9v-26.85
			h6.5v25.13c0,0.45,0.01,0.9,0.03,1.36c0.02,0.46,0.11,0.89,0.27,1.28c0.16,0.39,0.4,0.71,0.72,0.96c0.33,0.25,0.78,0.37,1.36,0.37
			c1.06,0,2.04-0.36,2.96-1.09s1.68-1.51,2.29-2.34v-25.67h5.66l0.44-1.38h-2.39v-5.69h5.16v5.69L731.48,875.27z"/>
		<path class="st5" d="M762.99,874.67c0.07,0.11,0.13,0.24,0.2,0.37c0.36,0.79,0.62,1.6,0.77,2.43c0.16,0.83,0.26,1.68,0.32,2.54
			c0.06,0.87,0.08,1.74,0.08,2.61v10.65c0,1.8-0.13,3.53-0.39,5.21c-0.26,1.67-1.05,3.18-2.38,4.53c-1.06,1.06-2.26,1.77-3.62,2.16
			s-2.76,0.57-4.19,0.57c-1.46,0-2.86-0.2-4.19-0.61c-1.34-0.4-2.53-1.11-3.59-2.12c-1.35-1.26-2.13-2.76-2.36-4.5
			c-0.23-1.74-0.34-3.49-0.34-5.24v-10.65c0-0.88,0.01-1.75,0.03-2.61c0.02-0.86,0.12-1.71,0.3-2.54c0.18-0.83,0.45-1.63,0.83-2.39
			c0.37-0.76,0.88-1.48,1.53-2.16c1.06-1.06,2.26-1.79,3.62-2.21c1.36-0.42,2.75-0.62,4.16-0.62c1.48,0,2.9,0.2,4.25,0.61
			c1.21,0.38,2.31,1.04,3.3,1.99l1.08-3.3h-2.39v-5.69h5.16v5.69L762.99,874.67z M757.94,882.21c0-0.74-0.05-1.49-0.13-2.24
			c-0.09-0.75-0.28-1.43-0.56-2.02s-0.7-1.08-1.25-1.45c-0.55-0.37-1.29-0.56-2.21-0.56s-1.65,0.2-2.17,0.59
			c-0.53,0.39-0.93,0.89-1.2,1.48s-0.46,1.26-0.56,1.99c-0.1,0.73-0.15,1.47-0.15,2.21v11.39c0,0.74,0.05,1.48,0.15,2.21
			c0.1,0.73,0.29,1.4,0.56,2s0.67,1.1,1.2,1.48c0.53,0.38,1.25,0.57,2.17,0.57s1.66-0.18,2.21-0.54c0.55-0.36,0.96-0.84,1.25-1.45
			s0.47-1.29,0.56-2.04c0.09-0.75,0.13-1.5,0.13-2.24V882.21z M750.93,915.23v-6.13h6v6.13H750.93z"/>
		<path class="st5" d="M789.61,905.39c-0.7,0.09-1.42,0.13-2.16,0.13c-1.33,0-2.6-0.16-3.82-0.47c-1.22-0.31-2.29-1-3.18-2.06
			c-0.88-1.01-1.37-2.21-1.47-3.59c-0.1-1.38-0.15-2.7-0.15-3.96v-18.9h-4.89v-5.79h4.89v-9.37h6.5v9.37h5.86v5.79h-5.86v18.23
			c0,1.46,0.26,2.64,0.79,3.54c0.53,0.9,1.6,1.35,3.22,1.35c0.49,0,0.9-0.03,1.23-0.1c0.33-0.07,0.71-0.17,1.16-0.3v5.79
			C791.02,905.19,790.31,905.3,789.61,905.39z"/>
		<path class="st5" d="M837.84,905.39c-0.7,0.09-1.42,0.13-2.16,0.13c-1.33,0-2.6-0.16-3.82-0.47c-1.22-0.31-2.29-1-3.18-2.06
			c-0.88-1.01-1.37-2.21-1.47-3.59c-0.1-1.38-0.15-2.7-0.15-3.96v-18.9h-4.89v-5.79h4.89v-9.37h6.5v9.37h5.86v5.79h-5.86v18.23
			c0,1.46,0.26,2.64,0.79,3.54c0.53,0.9,1.6,1.35,3.22,1.35c0.49,0,0.9-0.03,1.23-0.1c0.33-0.07,0.71-0.17,1.16-0.3v5.79
			C839.24,905.19,838.54,905.3,837.84,905.39z"/>
		<path class="st5" d="M862.46,877.26c-0.48-0.09-1-0.13-1.57-0.13c-1.19,0-2.12,0.2-2.8,0.61s-1.18,0.96-1.52,1.65
			c-0.34,0.7-0.55,1.48-0.64,2.36s-0.13,1.77-0.13,2.7v20.62h-6.5v-34.3h6.5v5.93c0.81-2.07,1.78-3.64,2.92-4.72
			c1.13-1.08,2.87-1.62,5.21-1.62v7.38C863.43,877.51,862.94,877.35,862.46,877.26z"/>
		<path class="st5" d="M894.73,893.27c0,1.8-0.13,3.53-0.39,5.21c-0.26,1.67-1.05,3.18-2.38,4.53c-1.06,1.06-2.26,1.77-3.62,2.16
			s-2.76,0.57-4.19,0.57c-1.46,0-2.86-0.2-4.19-0.61c-1.34-0.4-2.53-1.11-3.59-2.12c-1.35-1.26-2.13-2.76-2.36-4.5
			c-0.23-1.74-0.34-3.49-0.34-5.24v-10.65c0-0.88,0.01-1.75,0.03-2.61c0.02-0.86,0.12-1.71,0.3-2.54c0.18-0.83,0.45-1.63,0.83-2.39
			c0.37-0.76,0.88-1.48,1.53-2.16c1.06-1.06,2.26-1.79,3.62-2.21c1.36-0.42,2.75-0.62,4.16-0.62c1.48,0,2.89,0.21,4.23,0.62
			c1.34,0.42,2.53,1.15,3.59,2.21c0.67,0.63,1.2,1.34,1.57,2.12c0.37,0.79,0.64,1.6,0.81,2.43c0.17,0.83,0.28,1.68,0.32,2.54
			c0.04,0.87,0.07,1.74,0.07,2.61V893.27z M886.37,865.17l-2.22-2.32l-2.12,2.32h-5.79l4.35-6.13h7.24l4.35,6.13H886.37z
			 M888.29,882.21c0-0.74-0.05-1.49-0.13-2.24c-0.09-0.75-0.28-1.43-0.56-2.02s-0.7-1.08-1.25-1.45c-0.55-0.37-1.29-0.56-2.21-0.56
			s-1.65,0.2-2.17,0.59c-0.53,0.39-0.93,0.89-1.2,1.48s-0.46,1.26-0.56,1.99c-0.1,0.73-0.15,1.47-0.15,2.21v11.39
			c0,0.74,0.05,1.48,0.15,2.21c0.1,0.73,0.29,1.4,0.56,2s0.67,1.1,1.2,1.48c0.53,0.38,1.25,0.57,2.17,0.57s1.66-0.18,2.21-0.54
			c0.55-0.36,0.96-0.84,1.25-1.45s0.47-1.29,0.56-2.04c0.09-0.75,0.13-1.5,0.13-2.24V882.21z M881.28,915.23v-6.13h6v6.13H881.28z"
			/>
		<path class="st5" d="M906.53,865.74v-6.7h6.5v6.7H906.53z M906.53,905.06v-34.3h6.5v34.3H906.53z"/>
		<path class="st5" d="M945.35,890.44v-5.73h9.87v5.73H945.35z"/>
		<path class="st5" d="M1012.38,862.57v27.66c0,2.02-0.12,4.01-0.37,5.96s-0.99,3.76-2.22,5.42c-1.12,1.46-2.54,2.51-4.26,3.15
			c-1.72,0.64-3.48,0.96-5.27,0.96c-1.89,0-3.64-0.32-5.27-0.96c-1.63-0.64-3.05-1.69-4.26-3.15c-1.24-1.62-1.98-3.44-2.24-5.46
			c-0.26-2.02-0.39-4-0.39-5.93v-31.2h7.11v32.34c0,0.92,0.05,1.84,0.15,2.76c0.1,0.92,0.32,1.75,0.66,2.49
			c0.34,0.74,0.84,1.33,1.52,1.77c0.67,0.44,1.58,0.66,2.73,0.66c1.15,0,2.05-0.22,2.71-0.66c0.66-0.44,1.17-1.03,1.52-1.77
			s0.57-1.57,0.66-2.49c0.09-0.92,0.13-1.84,0.13-2.76v-32.34h5.93l0.37-1.15h-2.39v-5.69h5.16v5.69L1012.38,862.57z"/>
		<path class="st5" d="M1044.36,874.67c0.07,0.11,0.13,0.24,0.2,0.37c0.36,0.79,0.62,1.6,0.77,2.43c0.16,0.83,0.26,1.68,0.32,2.54
			c0.06,0.87,0.08,1.74,0.08,2.61v10.65c0,1.8-0.13,3.53-0.39,5.21c-0.26,1.67-1.05,3.18-2.38,4.53c-1.06,1.06-2.26,1.77-3.62,2.16
			s-2.76,0.57-4.19,0.57c-1.46,0-2.86-0.2-4.19-0.61c-1.34-0.4-2.53-1.11-3.59-2.12c-1.35-1.26-2.13-2.76-2.36-4.5
			c-0.23-1.74-0.34-3.49-0.34-5.24v-10.65c0-0.88,0.01-1.75,0.03-2.61c0.02-0.86,0.12-1.71,0.3-2.54c0.18-0.83,0.45-1.63,0.83-2.39
			c0.37-0.76,0.88-1.48,1.53-2.16c1.06-1.06,2.26-1.79,3.62-2.21c1.36-0.42,2.75-0.62,4.16-0.62c1.48,0,2.9,0.2,4.25,0.61
			c1.21,0.38,2.31,1.04,3.3,1.99l1.08-3.3h-2.39v-5.69h5.16v5.69L1044.36,874.67z M1039.31,882.21c0-0.74-0.05-1.49-0.13-2.24
			c-0.09-0.75-0.28-1.43-0.56-2.02s-0.7-1.08-1.25-1.45c-0.55-0.37-1.29-0.56-2.21-0.56s-1.65,0.2-2.17,0.59
			c-0.53,0.39-0.93,0.89-1.2,1.48s-0.46,1.26-0.56,1.99c-0.1,0.73-0.15,1.47-0.15,2.21v11.39c0,0.74,0.05,1.48,0.15,2.21
			c0.1,0.73,0.29,1.4,0.56,2s0.67,1.1,1.2,1.48c0.53,0.38,1.25,0.57,2.17,0.57s1.66-0.18,2.21-0.54c0.55-0.36,0.96-0.84,1.25-1.45
			s0.47-1.29,0.56-2.04c0.09-0.75,0.13-1.5,0.13-2.24V882.21z"/>
		<path class="st5" d="M1085.84,905.06v-25.1c0-0.47-0.01-0.94-0.03-1.4c-0.02-0.46-0.12-0.89-0.29-1.28
			c-0.17-0.39-0.42-0.71-0.76-0.96c-0.34-0.25-0.81-0.37-1.42-0.37c-1.06,0-2.04,0.38-2.96,1.13s-1.68,1.52-2.29,2.31v25.67h-6.4
			v-25.1c0-0.47-0.01-0.94-0.03-1.4c-0.02-0.46-0.12-0.89-0.29-1.28c-0.17-0.39-0.42-0.71-0.76-0.96c-0.34-0.25-0.81-0.37-1.42-0.37
			c-1.06,0-2.03,0.38-2.93,1.13c-0.9,0.75-1.64,1.52-2.22,2.31v25.67h-6.5v-34.3h6.5v4.41c1.15-1.33,2.38-2.46,3.71-3.4
			c1.32-0.94,2.91-1.42,4.75-1.42c1.62,0,2.85,0.44,3.71,1.31s1.42,2.04,1.68,3.5c1.19-1.28,2.48-2.4,3.86-3.37
			c1.38-0.97,2.99-1.45,4.83-1.45c1.19,0,2.16,0.23,2.9,0.69c0.74,0.46,1.32,1.06,1.74,1.79c0.42,0.73,0.69,1.57,0.83,2.51
			s0.2,1.92,0.2,2.93v26.78H1085.84z"/>
		<path class="st5" d="M1155.87,905.06v-25.1c0-0.47-0.01-0.94-0.03-1.4c-0.02-0.46-0.12-0.89-0.29-1.28
			c-0.17-0.39-0.42-0.71-0.76-0.96c-0.34-0.25-0.81-0.37-1.42-0.37c-1.06,0-2.04,0.38-2.96,1.13s-1.68,1.52-2.29,2.31v25.67h-6.4
			v-25.1c0-0.47-0.01-0.94-0.03-1.4c-0.02-0.46-0.12-0.89-0.29-1.28c-0.17-0.39-0.42-0.71-0.76-0.96c-0.34-0.25-0.81-0.37-1.42-0.37
			c-1.06,0-2.03,0.38-2.93,1.13c-0.9,0.75-1.64,1.52-2.22,2.31v25.67h-6.5v-34.3h6.5v4.41c1.15-1.33,2.38-2.46,3.71-3.4
			c1.32-0.94,2.91-1.42,4.75-1.42c1.62,0,2.85,0.44,3.71,1.31s1.42,2.04,1.68,3.5c1.19-1.28,2.48-2.4,3.86-3.37
			c1.38-0.97,2.99-1.45,4.83-1.45c1.19,0,2.16,0.23,2.9,0.69c0.74,0.46,1.32,1.06,1.74,1.79c0.42,0.73,0.69,1.57,0.83,2.51
			s0.2,1.92,0.2,2.93v26.78H1155.87z"/>
		<path class="st5" d="M1189.1,905.06c-0.25-0.65-0.4-1.31-0.47-1.97s-0.1-1.34-0.1-2.04c-1.1,1.19-2.24,2.24-3.4,3.13
			s-2.63,1.35-4.38,1.35c-1.3,0-2.39-0.26-3.25-0.79c-0.87-0.53-1.58-1.23-2.14-2.11s-0.96-1.85-1.18-2.93s-0.34-2.17-0.34-3.27
			c0-1.53,0.22-2.9,0.66-4.11c0.44-1.21,1.21-2.35,2.31-3.4c1.57-1.48,3.44-2.7,5.59-3.64s4.2-1.83,6.13-2.66v-1.79
			c0-0.58-0.03-1.18-0.1-1.79s-0.21-1.14-0.44-1.6c-0.23-0.46-0.57-0.83-1.03-1.09s-1.06-0.4-1.8-0.4c-1.48,0-2.48,0.49-2.98,1.48
			c-0.5,0.99-0.78,2.12-0.83,3.4h-6.84c0.29-3.44,1.43-6.04,3.4-7.82c1.98-1.77,4.68-2.66,8.12-2.66c1.35,0,2.63,0.17,3.84,0.52
			s2.28,1.05,3.2,2.11c0.97,1.06,1.52,2.24,1.67,3.55c0.15,1.31,0.22,2.63,0.22,3.96v15.26c0,1.55,0.02,3.11,0.07,4.67
			c0.04,1.56,0.27,3.11,0.67,4.63H1189.1z M1187.58,865.17l-2.22-2.32l-2.12,2.32h-5.83l4.38-6.13h7.24l4.35,6.13H1187.58z
			 M1182.93,857.42l-4.95-6.13h6.6l3.2,6.13H1182.93z M1188.52,887.4c-0.83,0.4-1.71,0.88-2.63,1.43c-0.92,0.55-1.77,1.19-2.54,1.9
			c-0.78,0.72-1.43,1.52-1.95,2.39c-0.53,0.88-0.79,1.84-0.79,2.9c0,0.97,0.27,1.85,0.83,2.64c0.55,0.8,1.35,1.2,2.41,1.2
			s1.98-0.31,2.76-0.93c0.79-0.62,1.43-1.34,1.92-2.17V887.4z"/>
		<path class="st5" d="M1235.97,905.06v-25.1c0-0.47-0.01-0.94-0.03-1.4c-0.02-0.46-0.12-0.89-0.29-1.28
			c-0.17-0.39-0.42-0.71-0.76-0.96c-0.34-0.25-0.81-0.37-1.42-0.37c-1.06,0-2.04,0.38-2.96,1.13s-1.68,1.52-2.29,2.31v25.67h-6.4
			v-25.1c0-0.47-0.01-0.94-0.03-1.4c-0.02-0.46-0.12-0.89-0.29-1.28c-0.17-0.39-0.42-0.71-0.76-0.96c-0.34-0.25-0.81-0.37-1.42-0.37
			c-1.06,0-2.03,0.38-2.93,1.13c-0.9,0.75-1.64,1.52-2.22,2.31v25.67h-6.5v-34.3h6.5v4.41c1.15-1.33,2.38-2.46,3.71-3.4
			c1.32-0.94,2.91-1.42,4.75-1.42c1.62,0,2.85,0.44,3.71,1.31s1.42,2.04,1.68,3.5c1.19-1.28,2.48-2.4,3.86-3.37
			c1.38-0.97,2.99-1.45,4.83-1.45c1.19,0,2.16,0.23,2.9,0.69c0.74,0.46,1.32,1.06,1.74,1.79c0.42,0.73,0.69,1.57,0.83,2.51
			s0.2,1.92,0.2,2.93v26.78H1235.97z"/>
		<path class="st5" d="M1298.38,895.59c0,3.19-0.99,5.68-2.98,7.46c-1.99,1.79-4.52,2.68-7.6,2.68c-1.62,0-3.04-0.22-4.28-0.67
			s-2.32-1.09-3.27-1.92c-0.94-0.83-1.76-1.84-2.46-3.02c-0.7-1.18-1.27-2.5-1.72-3.96l6-2.16c0.22,0.7,0.49,1.4,0.79,2.12
			c0.3,0.72,0.67,1.35,1.11,1.9c0.44,0.55,0.97,0.99,1.58,1.33c0.62,0.34,1.36,0.51,2.24,0.51c1.01,0,1.88-0.31,2.59-0.93
			c0.72-0.62,1.08-1.45,1.08-2.51c0-1.01-0.37-1.89-1.11-2.63s-1.66-1.43-2.76-2.07c-1.1-0.64-2.29-1.29-3.55-1.95
			c-1.27-0.66-2.45-1.44-3.55-2.34c-1.1-0.9-2.02-1.97-2.76-3.22c-0.74-1.25-1.11-2.77-1.11-4.57c0-1.42,0.26-2.71,0.79-3.89
			c0.53-1.18,1.24-2.19,2.14-3.03c0.9-0.84,1.96-1.49,3.18-1.95c1.22-0.46,2.52-0.69,3.89-0.69c2.9,0,5.22,0.72,6.97,2.17
			c1.75,1.45,3.13,3.48,4.14,6.08l-5.86,2.56c-0.22-0.58-0.49-1.18-0.79-1.79c-0.3-0.61-0.66-1.15-1.08-1.63
			c-0.42-0.48-0.91-0.86-1.48-1.13c-0.57-0.27-1.23-0.4-1.97-0.4c-0.92,0-1.71,0.26-2.38,0.79s-0.99,1.27-0.99,2.24
			c0,0.7,0.21,1.31,0.62,1.84c0.42,0.53,0.92,1.02,1.52,1.48c0.59,0.46,1.22,0.86,1.89,1.2s1.25,0.65,1.77,0.94
			c1.19,0.63,2.42,1.33,3.69,2.09c1.27,0.76,2.36,1.63,3.29,2.59c0.88,0.92,1.5,1.93,1.87,3.03
			C1298.19,893.25,1298.38,894.4,1298.38,895.59z"/>
		<path class="st5" d="M1329.28,875.27v29.78h-6.4v-4.41c-1.1,1.33-2.34,2.47-3.72,3.44c-1.38,0.97-2.97,1.45-4.77,1.45
			c-1.19,0-2.16-0.23-2.9-0.69c-0.74-0.46-1.32-1.06-1.74-1.79c-0.42-0.73-0.69-1.58-0.83-2.54c-0.13-0.97-0.2-1.93-0.2-2.9v-26.85
			h6.5v25.13c0,0.45,0.01,0.9,0.03,1.36c0.02,0.46,0.11,0.89,0.27,1.28c0.16,0.39,0.4,0.71,0.72,0.96c0.33,0.25,0.78,0.37,1.36,0.37
			c1.06,0,2.04-0.36,2.96-1.09s1.68-1.51,2.29-2.34v-25.67h5.66l0.44-1.38h-2.39v-5.69h5.16v5.69L1329.28,875.27z M1321.03,865.17
			h-4.85l3.17-6.13h6.7L1321.03,865.17z"/>
		<path class="st5" d="M1362.06,898.61c-0.26,1.45-0.92,2.77-1.97,3.96c-1.06,1.21-2.31,2.04-3.76,2.49
			c-1.45,0.45-2.94,0.67-4.46,0.67c-1.64,0-3.22-0.26-4.73-0.79c-1.52-0.53-2.81-1.45-3.89-2.78c-1.01-1.28-1.62-2.75-1.82-4.41
			c-0.2-1.66-0.3-3.27-0.3-4.82v-9.94c0-1.66,0.1-3.28,0.3-4.87c0.2-1.58,0.81-3.07,1.82-4.46c1.03-1.33,2.34-2.25,3.92-2.78
			c1.58-0.53,3.18-0.79,4.8-0.79c1.5,0,2.97,0.23,4.4,0.69c1.43,0.46,2.67,1.26,3.72,2.41c1.19,1.28,1.88,2.76,2.07,4.45
			c0.19,1.68,0.29,3.35,0.29,4.99h-6.43c0-0.76-0.02-1.54-0.07-2.32c-0.04-0.79-0.2-1.5-0.47-2.14c-0.27-0.64-0.68-1.17-1.23-1.58
			c-0.55-0.42-1.34-0.62-2.38-0.62c-1.1,0-1.95,0.25-2.54,0.76c-0.59,0.51-1.03,1.15-1.3,1.92c-0.27,0.77-0.42,1.62-0.46,2.54
			c-0.03,0.92-0.05,1.8-0.05,2.63v8.29c0,0.83,0.02,1.7,0.05,2.59c0.03,0.9,0.19,1.74,0.46,2.51c0.27,0.78,0.7,1.42,1.3,1.92
			c0.59,0.5,1.44,0.76,2.54,0.76c1.03,0,1.82-0.22,2.38-0.66c0.55-0.44,0.96-0.99,1.23-1.65s0.43-1.41,0.47-2.24
			c0.04-0.83,0.07-1.63,0.07-2.39h6.43v1.21C1362.44,895.67,1362.31,897.16,1362.06,898.61z"/>
		<path class="st5" d="M1411.65,905.06l-4.75-16l-3.64,5.79v10.21h-6.5v-46.02h6.5v25.47l7.72-13.75h7.31l-6.97,11.19l7.58,23.11
			H1411.65z"/>
		<path class="st5" d="M1442.75,905.06v-25.1c0-0.47-0.01-0.94-0.03-1.4c-0.02-0.46-0.12-0.89-0.29-1.28
			c-0.17-0.39-0.42-0.71-0.76-0.96c-0.34-0.25-0.81-0.37-1.42-0.37c-1.06,0-2.03,0.38-2.93,1.13c-0.9,0.75-1.64,1.52-2.22,2.31
			v25.67h-6.5v-46.02h6.5v16.14c1.15-1.33,2.38-2.46,3.71-3.4c1.32-0.94,2.91-1.42,4.75-1.42c1.17,0,2.12,0.23,2.85,0.69
			c0.73,0.46,1.3,1.06,1.72,1.79c0.42,0.73,0.69,1.58,0.83,2.54c0.13,0.97,0.2,1.93,0.2,2.9v26.78H1442.75z"/>
		<path class="st5" d="M1482.04,893.27c0,1.8-0.13,3.53-0.39,5.21c-0.26,1.67-1.05,3.18-2.38,4.53c-1.06,1.06-2.26,1.77-3.62,2.16
			s-2.76,0.57-4.19,0.57c-1.46,0-2.86-0.2-4.19-0.61c-1.34-0.4-2.53-1.11-3.59-2.12c-1.35-1.26-2.13-2.76-2.36-4.5
			c-0.23-1.74-0.34-3.49-0.34-5.24v-10.65c0-0.88,0.01-1.75,0.03-2.61c0.02-0.86,0.12-1.71,0.3-2.54c0.18-0.83,0.45-1.63,0.83-2.39
			c0.37-0.76,0.88-1.48,1.53-2.16c1.06-1.06,2.26-1.79,3.62-2.21c1.36-0.42,2.75-0.62,4.16-0.62c1.48,0,2.89,0.21,4.23,0.62
			c1.34,0.42,2.53,1.15,3.59,2.21c0.67,0.63,1.2,1.34,1.57,2.12c0.37,0.79,0.64,1.6,0.81,2.43c0.17,0.83,0.28,1.68,0.32,2.54
			c0.04,0.87,0.07,1.74,0.07,2.61V893.27z M1469.58,868.06c0.02-0.43,0.07-0.8,0.13-1.11c0.09-0.56,0.25-1.12,0.47-1.67
			s0.48-1.1,0.76-1.65c0.28-0.55,0.6-1.16,0.96-1.84c0.27-0.38,0.5-0.8,0.69-1.25c0.19-0.45,0.29-0.9,0.29-1.35
			c0-0.47-0.1-0.81-0.29-1.01c-0.19-0.2-0.43-0.3-0.72-0.3c-0.18,0-0.37,0.07-0.56,0.2c-0.19,0.13-0.38,0.32-0.56,0.56
			c-0.18,0.24-0.34,0.52-0.47,0.84s-0.28,0.77-0.44,1.33l-4.18-1.25c0.52-1.55,1.25-2.78,2.19-3.69c0.94-0.91,2.35-1.36,4.21-1.36
			c0.74,0,1.45,0.11,2.12,0.34c0.67,0.22,1.25,0.54,1.74,0.96c0.48,0.42,0.86,0.92,1.13,1.5c0.27,0.58,0.4,1.21,0.4,1.89
			c0,0.88-0.17,1.63-0.52,2.27c-0.35,0.64-0.75,1.31-1.2,2c-0.45,0.67-0.83,1.25-1.13,1.74c-0.3,0.48-0.53,0.98-0.69,1.5
			c-0.11,0.31-0.21,0.76-0.3,1.35H1469.58z M1475.61,882.21c0-0.74-0.05-1.49-0.13-2.24c-0.09-0.75-0.28-1.43-0.56-2.02
			s-0.7-1.08-1.25-1.45c-0.55-0.37-1.29-0.56-2.21-0.56s-1.65,0.2-2.17,0.59c-0.53,0.39-0.93,0.89-1.2,1.48s-0.46,1.26-0.56,1.99
			c-0.1,0.73-0.15,1.47-0.15,2.21v11.39c0,0.74,0.05,1.48,0.15,2.21c0.1,0.73,0.29,1.4,0.56,2s0.67,1.1,1.2,1.48
			c0.53,0.38,1.25,0.57,2.17,0.57s1.66-0.18,2.21-0.54c0.55-0.36,0.96-0.84,1.25-1.45s0.47-1.29,0.56-2.04
			c0.09-0.75,0.13-1.5,0.13-2.24V882.21z"/>
		<path class="st5" d="M1514.93,894.44c0,1.5-0.13,2.95-0.39,4.33c-0.26,1.38-0.92,2.67-1.97,3.86c-1.06,1.21-2.31,2.03-3.76,2.46
			c-1.45,0.43-2.94,0.64-4.46,0.64c-2.16,0-3.92-0.31-5.31-0.93c-1.38-0.62-2.47-1.49-3.27-2.61c-0.8-1.12-1.36-2.46-1.68-4.03
			c-0.33-1.56-0.49-3.31-0.49-5.24v-10.31c0-1.77,0.13-3.5,0.39-5.19s1.05-3.19,2.38-4.51c1.05-1.01,2.26-1.74,3.62-2.17
			c1.36-0.44,2.75-0.66,4.16-0.66c1.57,0,3.05,0.24,4.43,0.72c1.38,0.48,2.6,1.3,3.66,2.44c0.65,0.7,1.15,1.44,1.48,2.24
			c0.34,0.8,0.6,1.62,0.79,2.48c0.19,0.85,0.3,1.74,0.32,2.66c0.02,0.92,0.03,1.82,0.03,2.7v5.66h-14.86v3.1
			c0,0.83,0.02,1.71,0.05,2.63c0.03,0.92,0.19,1.76,0.46,2.51s0.7,1.38,1.3,1.89c0.59,0.5,1.48,0.76,2.65,0.76
			c0.96,0,1.72-0.2,2.27-0.61s0.96-0.93,1.23-1.58c0.27-0.65,0.43-1.36,0.47-2.14c0.04-0.78,0.07-1.56,0.07-2.34h6.43V894.44z
			 M1508.43,881.47c0-0.79-0.04-1.53-0.13-2.22c-0.09-0.7-0.3-1.31-0.62-1.84s-0.76-0.94-1.31-1.23c-0.55-0.29-1.29-0.44-2.21-0.44
			c-0.88,0-1.59,0.16-2.14,0.47c-0.55,0.31-0.97,0.74-1.26,1.26s-0.49,1.14-0.59,1.84c-0.1,0.7-0.15,1.42-0.15,2.16v1.85h8.42
			V881.47z"/>
	</g>
</g>
</svg>
